<svg width="42" height="34" viewBox="0 0 42 34" fill="none" xmlns="http://www.w3.org/2000/svg">
<path id="Vector" d="M8.76829 15.4377C4.16403 18.1325 -0.609459 21.9862 1.50506 24.4861C3.61958 26.986 7.87371 21.1681 11.8132 22.1327C15.7527 23.0973 18.012 29.7136 19.3127 31.3404C20.6135 32.9673 21.8822 34.9749 25.0902 30.8009C28.2982 26.6269 37.745 12.4681 40.2118 8.7874C42.6786 5.10667 40.0987 2.69613 36.1669 2.19506C32.2351 1.69398 1.51173 -0.412562 -1.57702 0.158603C-4.66577 0.729768 -5.16302 1.46434 -3.90485 2.95163C-2.64667 4.43891 0.79428 9.6482 4.81258 9.89569C10.9627 10.2745 27.2467 7.18861 28.3082 8.57957C29.3451 9.93817 12.3515 13.3405 8.76829 15.4377Z" fill="#5992E8"/>
</svg>
