<svg width="134" height="131" viewBox="0 0 134 131" fill="none" xmlns="http://www.w3.org/2000/svg">
<path id="Vector" d="M61.7949 93.2183C55.9136 109.327 51.9879 128.653 62.3475 130.512C72.7072 132.37 71.3216 109.244 83.0552 103.56C94.7888 97.8768 113.942 109.634 120.497 110.997C127.052 112.361 134.308 114.733 133.7 97.8222C133.092 80.9109 127.476 26.4865 126.043 12.3156C124.61 -1.85526 113.281 -2.5388 102.517 4.27699C91.7521 11.0928 11.3434 68.8319 4.86393 76.5758C-1.61554 84.3196 -1.34184 87.1579 4.82192 88.2632C10.9857 89.3686 30.1823 95.2194 40.6415 87.5983C56.6497 75.934 90.6565 34.9232 96.1359 36.193C101.488 37.4331 66.3719 80.6816 61.7949 93.2183Z" fill="#5992E8"/>
</svg>
