<svg width="24" height="27" viewBox="0 0 24 27" fill="none" xmlns="http://www.w3.org/2000/svg">
<path id="Vector" d="M11.1686 20.4142C11.6288 23.4757 12.677 26.8781 14.4796 26.2772C16.2822 25.6763 14.0637 22.1307 15.4321 20.2157C16.8006 18.3007 20.8525 18.5086 22.0093 18.1582C23.1661 17.8077 24.5212 17.5565 22.9631 14.9287C21.4051 12.3009 15.8107 4.16041 14.3588 2.03824C12.9068 -0.0839237 11.0522 0.78697 9.93515 2.79767C8.81814 4.80838 1.06447 20.9098 0.706846 22.6972C0.349226 24.4847 0.637928 24.9108 1.71039 24.5533C2.78286 24.1957 6.33114 23.4638 7.33014 21.3518C8.85914 18.1194 10.7043 8.68007 11.6825 8.40771C12.6379 8.14168 10.8104 18.0316 11.1686 20.4142Z" fill="#5992E8"/>
</svg>
